# xmcd
#
# Track frame offsets: 
#        150
#        16669
#        37407
#        55232
#        80394
#        104225
#        124334
#        140326
#        164761
#        188716
#        207059
#        244351
#        263754
#        281228
#        301972
#        329676
#
# Disc length: 4784 seconds
#
# Revision: 1
# Processed by: cddbd v1.5.2PL0 Copyright (c) Steve Scherf et al.
# Submitted via: ExactAudioCopy v1.3
#
DISCID=f712ae10
DTITLE=Various Artist - Akella Presents - vol.49 - Blues-Rock  CD2
DYEAR=2015
DGENRE=Blues-Rock
TTITLE0=Rob Orlemans and The Half Past Midnight - Shotgun Shack
TTITLE1=Jon Bare and the Killer Whales - You Shook Me
TTITLE2=Sideburn - Never Get Down
TTITLE3=The Blues Mystery - Back To The Dirty Town
TTITLE4=Craig Erickson - Overtime
TTITLE5=Doug Varty - Paid
TTITLE6=Five Horse Johnson - Sweetwater
TTITLE7=JP Blues - Love So Cold
TTITLE8=Bonafide - Suburb baby Blues
TTITLE9=Hundred Seventy Split - King Of The Blues
TTITLE10=Matt O'Ree and the Blues Hounds - Something to Say
TTITLE11=Dudley Taft - God Forbid
TTITLE12=The Hamsters - Boogie Man
TTITLE13=Chris Duarte Group - My Way Down
TTITLE14=Merzy - Give Me What You Got
TTITLE15=The Hoochie Coochie Men - If This Ain't The Blues
EXTD=
EXTT0=
EXTT1=
EXTT2=
EXTT3=
EXTT4=
EXTT5=
EXTT6=
EXTT7=
EXTT8=
EXTT9=
EXTT10=
EXTT11=
EXTT12=
EXTT13=
EXTT14=
EXTT15=
PLAYORDER=
